<?xml version="1.0" encoding="UTF-8"?>
<svg width="240px" height="240px" viewBox="0 0 240 240" version="1.1" xmlns="http://www.w3.org/2000/svg" xmlns:xlink="http://www.w3.org/1999/xlink">
    <!-- Generator: Sketch 41.2 (35397) - http://www.bohemiancoding.com/sketch -->
    <title>error_404</title>
    <desc>Created with Sketch.</desc>
    <defs>
        <path d="M62.7734753,0.15625 C12.5504991,0.15625 13,34.59375 13,34.59375 C13,34.59375 5,95.09375 5,107.59375 C5,111.592413 1.4617362e-14,112.59375 0,117.09375 C-1.42108547e-14,121.59375 16.5,121.59375 16.5,121.59375 L106.5,121.59375 C106.5,121.59375 123,121.59375 123,117.09375 C123,112.59375 118,111.591047 118,107.59375 C118,95.09375 110,34.59375 110,34.59375 C110,34.59375 112.996452,0.15625 62.7734753,0.15625 Z" id="path-1"></path>
        <path d="M43.9375,85.5 C30.8037914,85.5 5.44363318,82 4.4375,81 C3.43136682,80 0.226635514,76.3663366 0.226635514,70.5380569 C0.226635514,64.7097772 2.93136682,61.0714728 2.93136682,61.0714728 L13.9375,41.5 C13.9375,41.5 13.9375,39.5 13.4375,38 C12.9375,36.5 11.9375,34.5 11.9375,33 C11.9375,31.5 11.9375,17.5 18.9375,10.5 C25.9375,3.5 36.4375,2.5 37.4375,2.5 C37.8495479,2.5 39.9375,2 40.4375,1.5 C40.9375,1 42.3495479,8.72043823e-17 42.9375,0 C43.9375,0 43.9375,1.9207292e-13 44.9375,0 C45.4943419,-1.06830359e-13 46.9375,1 47.4375,1.5 C47.9375,2 49.9943419,2.5 50.4375,2.5 C51.4375,2.5 61.9375,3.5 68.9375,10.5 C75.9375,17.5 75.9375,31.5 75.9375,33 C75.9375,34.5 74.9375,36.5 74.4375,38 C73.9375,39.5 73.9375,41.5 73.9375,41.5 L84.9375,61.0714728 C84.9375,61.0714728 86.8556374,67.4509915 86.7780374,70.5380569 C86.7053745,73.4287143 84.4375,80 83.4375,81 C82.4375,82 57.250053,85.5 43.9375,85.5 Z" id="path-3"></path>
    </defs>
    <g id="icons" stroke="none" stroke-width="1" fill="none" fill-rule="evenodd">
        <g id="Group-9">
            <g id="Group-6" transform="translate(20.000000, 20.000000)">
                <g transform="translate(38.500000, 0.000000)">
                    <g id="Group">
                        <g id="Path-4085-+-Group" transform="translate(0.000000, 78.406250)">
                            <g id="Path-4085">
                                <mask id="mask-2" fill="white">
                                    <use xlink:href="#path-1"></use>
                                </mask>
                                <use id="Mask" fill="#333333" xlink:href="#path-1"></use>
                                <path d="M44.0361322,4.09375 L55.6452213,5.9321608 C55.6452213,5.9321608 59.5,6.09375 59.5,8.59375 C59.5,11.09375 56.5,11.59375 56.5,11.59375 C56.5,11.59375 31.5,20.09375 23.7715247,27.7911039 C16.0430495,35.4884579 16,97.59375 15,107.59375 C14,117.59375 10,119.59375 5,119.59375 C-1.67921232e-14,119.59375 0,117.09375 0,117.09375 L0,4.09375 L44.0361322,4.09375 Z" fill="#21B0D0" mask="url(#mask-2)"></path>
                                <path d="M78.9638678,4.09375 L67.3547787,5.9321608 C67.3547787,5.9321608 63.5,6.09375 63.5,8.59375 C63.5,11.09375 66.5,11.59375 66.5,11.59375 C66.5,11.59375 91.5,20.09375 99.2284753,27.7911039 C106.956951,35.4884579 107,97.59375 108,107.59375 C109,117.59375 113,119.59375 118,119.59375 C123,119.59375 123,117.09375 123,117.09375 L123,4.09375 L78.9638678,4.09375 Z" fill="#21B0D0" mask="url(#mask-2)"></path>
                            </g>
                            <path d="M46.5,35.584905 C46.5,34.4852205 47.3978404,33.59375 48.4916169,33.59375 L74.5083816,33.59375 C75.6083213,33.59375 76.4999986,34.4834239 76.4999986,35.584905 L76.4999993,53.602595 C76.4999993,54.7022796 75.6021589,55.59375 74.5083824,55.59375 L48.491617,55.59375 C47.3916773,55.59375 46.5,54.7040761 46.5,53.602595 L46.5,35.584905 Z" id="Rectangle-135" fill-opacity="0.300000012" fill="#21B0D0"></path>
                            <rect id="Rectangle-136" fill="#21B0D0" x="48.5" y="45.59375" width="5" height="8"></rect>
                            <rect id="Rectangle-136" fill="#64C80A" x="55.5" y="45.59375" width="5" height="8"></rect>
                            <rect id="Rectangle-136" fill="#FF9B00" x="62.5" y="45.59375" width="5" height="8"></rect>
                            <rect id="Rectangle-136" fill="#FF5032" x="69.5" y="45.59375" width="5" height="8"></rect>
                            <polygon id="Rectangle-136" fill="#FFFFFF" opacity="0.25" points="69.5 35.59375 74.5 35.59375 74.5 43.59375 69.5 43.59375"></polygon>
                            <polygon id="Rectangle-136" fill="#FFFFFF" opacity="0.25" points="55.5 35.59375 60.5 35.59375 60.5 43.59375 55.5 43.59375"></polygon>
                            <polygon id="Rectangle-136" fill="#FFFFFF" opacity="0.249999985" points="62.5 35.59375 67.5 35.59375 67.5 43.59375 62.5 43.59375"></polygon>
                            <polygon id="Rectangle-136" fill="#FFFFFF" opacity="0.249999985" points="48.5 35.59375 53.5 35.59375 53.5 43.59375 48.5 43.59375"></polygon>
                        </g>
                        <path d="M29.5,118 L29.5,153" id="Path-4104" stroke="#2F464B" stroke-width="4" stroke-linecap="round"></path>
                        <path d="M51.5,200 C51.5,200 51.5,191 42.5,191 C33.5,191 33.5,200 33.5,200 L51.5,200 Z" id="Oval-405" fill="#115868" transform="translate(42.500000, 195.500000) scale(-1, 1) translate(-42.500000, -195.500000) "></path>
                        <path d="M89.5,200 C89.5,200 89.5,191 80.5,191 C71.5,191 71.5,200 71.5,200 L89.5,200 Z" id="Oval-405" fill="#115868" transform="translate(80.500000, 195.500000) scale(-1, 1) translate(-80.500000, -195.500000) "></path>
                        <g id="Group-5" transform="translate(17.562500, 0.000000)">
                            <g id="Mask-+-Path-4066-+-Path-4066-+-Path-4067-+-Path-4068-Mask">
                                <mask id="mask-4" fill="white">
                                    <use xlink:href="#path-3"></use>
                                </mask>
                                <use id="Mask" fill="#333333" xlink:href="#path-3"></use>
                                <path d="M9.9375,73.5 C7.4375,76 4.4375,81 4.4375,81 C4.4375,81 -0.0625,78.5 -0.0625,72 C-0.0625,65.5 2.9375,60.5 2.9375,60.5 L13.9375,41.5 C13.9375,41.5 18.9375,34 25.9375,34 C32.9375,34 36.4375,37 36.9375,36.5 C37.4375,36 31.5,30 23.9375,30 C17.9557845,30 14.4375,34 13.4375,34 C12.4375,34 11.9375,32.5 11.9375,32.5 C11.9375,32.5 11.4375,17.5 18.9375,10 C26.4375,2.5 35.9375,2.5 35.9375,2.5 C35.9375,2.5 37.4375,2.5 37.4375,4 C37.4375,5.5 37.5254699,25.5879699 38.4375,26.5 C39.4375,27.5 40.9375,28.5 40.9375,28.5 L41.4375,0 L46.4375,0 L46.9375,28.5 C46.9375,28.5 48.4375,27.5 49.4375,26.5 C50.3083901,25.6291099 50.9353478,5.60667708 50.9353478,4.05333854 C50.9353478,2.5 52.4375,2.5 52.4375,2.5 C52.4375,2.5 61.4375,2.5 68.9375,10 C76.4375,17.5 75.9375,32.5 75.9375,32.5 C75.9375,32.5 75.4375,34 74.4375,34 C73.4375,34 69.48099,30 63.9375,30 C56.375,30 49.9375,36 50.4375,36.5 C50.9375,37 54.9375,34 61.9375,34 C68.9375,34 73.9375,41.5 73.9375,41.5 L84.9375,60.5 C84.9375,60.5 87.9375,66 87.9375,72 C87.9375,78 83.4375,81 83.4375,81 C83.4375,81 80.4375,76 77.9375,73.5 C75.4375,71 76.9375,64.5 76.9375,62.5 C76.9375,60.5 69.9375,47 69.9375,47 C69.9375,47 67.4375,39 58.9375,39 C50.4375,39 46.9375,46.5 46.9375,46.5 C46.9375,46.5 46.4375,47.5 43.9375,47.5 C41.4375,47.5 40.9375,46.5 40.9375,46.5 C40.9375,46.5 36.9375,39 28.9375,39 C20.9375,39 17.9375,47 17.9375,47 C17.9375,47 10.9375,60.5 10.9375,62.5 C10.9375,64.5 12.4375,71 9.9375,73.5 Z" id="Mask" fill="#21B0D0" mask="url(#mask-4)"></path>
                                <path d="M18.9375,53 C17.9375,53 15.4375,58.5 15.4375,60.5 C15.4375,62.5 17.0898072,65.3725248 19.34375,68.0625 C21.5976928,70.7524752 25.9375,72.5 26.9375,72.5 C27.9375,72.5 35.4375,63.5 35.9375,62.5 C36.4375,61.5 37.4375,55 36.9375,54.5 C36.4375,54 33.6341998,55.9836015 28.6755257,56.4319307 C23.7168516,56.8802599 19.9375,53 18.9375,53 Z" id="Path-4066" fill-opacity="0.5" fill="#21B0D0" mask="url(#mask-4)"></path>
                                <path d="M54.3012288,53 C53.3012288,53 50.8012288,58.5 50.8012288,60.5 C50.8012288,62.5 52.453536,65.3725248 54.7074788,68.0625 C56.9614215,70.7524752 61.3012288,72.5 62.3012288,72.5 C63.3012288,72.5 70.8012288,63.5 71.3012288,62.5 C71.8012288,61.5 72.8012288,55 72.3012288,54.5 C71.8012288,54 68.9979285,55.9836015 64.0392545,56.4319307 C59.0805804,56.8802599 55.3012288,53 54.3012288,53 Z" id="Path-4066" fill-opacity="0.5" fill="#21B0D0" mask="url(#mask-4)" transform="translate(61.619364, 62.750000) scale(-1, 1) translate(-61.619364, -62.750000) "></path>
                                <path d="M39.9375,61 L40.4375,56 C40.4375,56 40.3311916,53 43.9375,53 C47.5438084,53 47.4375,56 47.4375,56 L47.9375,61 L39.9375,61 Z" id="Path-4067" fill-opacity="0.5" fill="#21B0D0" mask="url(#mask-4)"></path>
                                <path d="M29.4375,81.5 C29.4375,81.5 27.4375,81.5 27.4375,79.5 C27.4375,77.5 28.9375,77.5 29.9375,77 C30.9375,76.5 38.4375,65 39.9375,64.5 C41.4375,64 46.4375,64 47.9375,64.5 C49.4375,65 56.9375,76.5 57.9375,77 C58.9375,77.5 60.4375,77.5 60.4375,79.5 C60.4375,81.5 58.4375,81.5 58.4375,81.5 C58.4375,81.5 51.4375,82.5 43.9375,82.5 C36.4375,82.5 29.4375,81.5 29.4375,81.5 Z" id="Path-4068" fill-opacity="0.5" fill="#21B0D0" mask="url(#mask-4)"></path>
                            </g>
                            <g id="Group" transform="translate(36.455315, 66.638923)" fill="#333333">
                                <path d="M4.48218458,1.36287416 C4.48218458,0.80959672 4.9260494,0.250110527 5.45874899,0.116935631 L5.50562017,0.105217835 C6.0449618,-0.0296175728 6.48218458,0.308566158 6.48218458,0.859579062 L6.48218458,11.8625744 C6.48218458,12.414032 6.03831976,12.8610767 5.48218458,12.8610767 L5.48218458,12.8610767 C4.92989983,12.8610767 4.48218458,12.4161951 4.48218458,11.8592793 L4.48218458,1.36287416 Z" id="Rectangle-121"></path>
                                <path d="M8.48218458,0.859579062 C8.48218458,0.308121453 8.9260494,-0.0279570617 9.45874899,0.105217835 L9.50562017,0.116935631 C10.0449618,0.251771038 10.4821846,0.805958351 10.4821846,1.36287416 L10.4821846,11.8592793 C10.4821846,12.4125567 10.0383198,12.8610767 9.48218458,12.8610767 L9.48218458,12.8610767 C8.92989983,12.8610767 8.48218458,12.4135873 8.48218458,11.8625744 L8.48218458,0.859579062 Z" id="Rectangle-121"></path>
                                <path d="M12.4821846,6.35701883 C12.4821846,5.8069752 12.9260494,5.47204294 13.458749,5.60521783 L13.5056202,5.61693563 C14.0449618,5.75177104 14.4821846,6.29895808 14.4821846,6.86400606 L14.4821846,11.8581474 C14.4821846,12.41205 14.0383198,12.8610767 13.4821846,12.8610767 L13.4821846,12.8610767 C12.9298998,12.8610767 12.4821846,12.4143781 12.4821846,11.8651346 L12.4821846,6.35701883 Z" id="Rectangle-121"></path>
                                <path d="M0.482184579,6.86400606 C0.482184579,6.31010349 0.926049402,5.75011053 1.45874899,5.61693563 L1.50562017,5.60521783 C2.0449618,5.47038243 2.48218458,5.8077754 2.48218458,6.35701883 L2.48218458,11.8651346 C2.48218458,12.4151783 2.03831976,12.8610767 1.48218458,12.8610767 L1.48218458,12.8610767 C0.92989983,12.8610767 0.482184579,12.4231954 0.482184579,11.8581474 L0.482184579,6.86400606 Z" id="Rectangle-121"></path>
                            </g>
                        </g>
                    </g>
                    <g id="Path-4101-+-Rectangle-163-+-Rectangle-163" transform="translate(85.500000, 172.341037) rotate(-250.000000) translate(-85.500000, -172.341037) translate(81.000000, 101.841037)">
                        <path d="M4.50390625,116.018107 L4.5,0.51810672" id="Path-4101" stroke="#FF5032" stroke-width="5" stroke-linecap="round" stroke-linejoin="round" transform="translate(4.501953, 58.268107) scale(-1, 1) translate(-4.501953, -58.268107) "></path>
                        <path d="M2,121.00991 C2,120.462152 2.44371665,120.018107 2.99980749,120.018107 L6.00019251,120.018107 C6.55237094,120.018107 7,120.473412 7,121.00991 L7,139.026304 C7,139.574061 6.55628335,140.018107 6.00019251,140.018107 L2.99980749,140.018107 C2.44762906,140.018107 2,139.562801 2,139.026304 L2,121.00991 Z" id="Rectangle-163" fill="#618188"></path>
                        <path d="M2.698763e-14,117.017914 C2.39063272e-16,116.465736 0.446311399,116.018107 0.997544646,116.018107 L8.00245535,116.018107 C8.55338405,116.018107 9,116.461823 9,117.017914 L9,120.018299 C9,120.570478 8.5536886,121.018107 8.00245535,121.018107 L0.997544646,121.018107 C0.446615951,121.018107 1.99270042e-13,120.57439 1.72331951e-13,120.018299 L2.698763e-14,117.017914 Z" id="Rectangle-163" fill="#618188"></path>
                    </g>
                    <path d="M29.5,160.5 C33.918278,160.5 37.5,156.918278 37.5,152.5 C37.5,148.081722 33.918278,144.5 29.5,144.5 C25.081722,144.5 21.5,148.081722 21.5,152.5 C21.5,156.918278 25.081722,160.5 29.5,160.5 Z" id="Oval-405" fill="#2A7181"></path>
                    <path d="M93.5,118 L93.5,153" id="Path-4104" stroke="#2F464B" stroke-width="4" stroke-linecap="round"></path>
                    <path d="M93.5,160.5 C97.918278,160.5 101.5,156.918278 101.5,152.5 C101.5,148.081722 97.918278,144.5 93.5,144.5 C89.081722,144.5 85.5,148.081722 85.5,152.5 C85.5,156.918278 89.081722,160.5 93.5,160.5 Z" id="Oval-405" fill="#2A7181"></path>
                </g>
            </g>
        </g>
    </g>
</svg>